<?xml version="1.0" encoding="utf-8"?>
<!-- Generator: Adobe Illustrator 25.2.1, SVG Export Plug-In . SVG Version: 6.00 Build 0)  -->
<svg version="1.1" id="Слой_1" xmlns="http://www.w3.org/2000/svg" xmlns:xlink="http://www.w3.org/1999/xlink" x="0px" y="0px"
	 viewBox="0 0 1000 1000" style="enable-background:new 0 0 1000 1000;" xml:space="preserve">
<style type="text/css">
	.st0{fill:#181D30;}
</style>
<g>
	<path class="st0" d="M471.2,0c19.5,0,39,0,58.5,0c1.3,0.3,2.5,0.7,3.8,0.9c10.2,1,20.4,1.7,30.5,2.9c30.9,3.6,61.1,10.6,90.7,20.2
		c19,6.2,37.6,13.6,55.8,21.9c21.2,9.7,41.4,21.1,60.9,33.7c16.3,10.5,32,21.7,46.8,34.2c10.1,8.6,20.1,17.4,29.8,26.6
		c12.6,11.9,24.4,24.7,35.5,38.1c11.4,13.8,22.4,27.9,32.3,42.8c15.1,22.8,28.6,46.4,39.9,71.4c11.4,25.2,20.8,51.2,27.9,77.9
		c8.8,33.5,15.1,67.5,15.6,102.3c0,1.4,0.6,2.8,0.9,4.3c0,15.3,0,30.6,0,45.9c-0.3,1.7-0.9,3.5-0.9,5.2c0.3,16-2,31.8-4.4,47.5
		c-4.9,32.4-12.9,64-24.2,94.8c-12.4,34-28.3,66.4-47.7,96.9c-21.2,33.3-45.8,63.8-74.4,91.1c-11.5,11-23.3,21.7-35.7,31.7
		c-26.5,21.2-54.8,39.6-84.9,55.1c-24,12.3-49,22.5-74.8,30.7c-22,7.1-44.4,12.6-67.2,16.5c-7.7,1.3-8.4,0.8-8.4-7.2
		c0-111.2,0-222.4,0-333.6c0-7.9,0-7.9,7.8-7.9c33.3,0,66.7,0,100,0c1.5,0,2.9,0,4.4,0c4-0.2,4.3-0.4,5-4.4
		c2.5-16,5.1-32.1,7.6-48.2c4.2-27.1,8.3-54.3,12.4-81.4c0.4-2.7,0.6-5.4,0.9-8.7c-2.6-0.2-4.8-0.5-7-0.5c-41,0-81.9,0-122.9,0
		c-7.9,0-8.2-0.2-8.2-8.3c0-28.9-0.1-57.9,0-86.8c0-11.1,1.7-22,5.6-32.5c4.2-11.3,10.4-21.3,20.1-28.8c14.2-11,30.6-15.8,48.2-16.2
		c21-0.5,41.9-0.1,62.9-0.1c7.6,0,7.6,0,7.6-7.6c0-35.6,0-71.2,0-106.8c0-1.5,0-2.9-0.1-4.4c-0.1-2.3-1.2-3.6-3.5-3.9
		c-4-0.6-8-1.3-12-1.9c-24-3.2-48.1-5.7-72.2-6.8c-16.9-0.7-33.8-1-50.7,1c-20.6,2.3-40.6,7.1-59.8,15.3
		c-22.2,9.5-41.3,23.4-57,41.6c-18.6,21.4-30.1,46.5-36.9,73.9c-5.3,21.4-6.8,43.3-7.1,65.3c-0.4,33-0.1,66-0.1,99
		c0,8.1,0,8.1-8.1,8.1c-37.1,0-74.1,0-111.2,0c-7.5,0-7.5,0-7.5,7.7c0,42.6,0,85.2,0,127.8c0,7.8,0,7.9,7.8,7.9
		c36.6,0,73.2,0,109.7,0c1.5,0,2.9,0,4.4,0c4,0.2,4.7,0.8,4.9,5c0,0.8,0,1.6,0,2.4c0,111.5,0,223.1,0,334.6c0,1.3,0,2.6-0.1,3.9
		c-0.1,2.5-1.6,3.4-3.9,3.3c-1-0.1-1.9-0.2-2.9-0.4c-24.3-4-48.1-10-71.4-17.7c-17.5-5.7-34.5-12.5-51.3-20.1
		c-17.6-8-34.7-17-51.3-27.1c-16-9.7-31.4-20.2-46.2-31.7c-16.3-12.6-31.9-26.1-46.6-40.6c-6-5.9-11.7-12.1-17.4-18.4
		c-5.7-6.2-11.3-12.5-16.7-19c-13.1-15.8-25.3-32.2-36.1-49.7c-6.9-11.2-13.8-22.4-20-34c-15.3-28.8-27.8-58.7-37.1-90
		C11.3,610.2,4.4,575.4,1.8,539.8c-0.2-3-1.2-6-1.8-9c0-20.5,0-41,0-61.5c0.6-3.3,1.4-6.6,1.8-10c1.6-12.9,2.6-25.8,4.6-38.7
		c4.6-30.1,12.2-59.5,22.4-88.2c6.4-18.1,13.8-35.8,22.3-53c11.4-23.2,24.5-45.5,39.5-66.6c14.3-20.1,29.5-39.6,46.9-57.2
		c7.4-7.5,14.9-15,22.4-22.4c4.1-4,8.2-7.9,12.6-11.4c11.5-9.2,23.1-18.4,34.9-27.4c17.9-13.6,37.1-25.2,56.8-35.8
		c30.9-16.5,63.2-29.7,96.9-39.4C395.7,9.3,431,2.9,467,0.9C468.4,0.8,469.8,0.3,471.2,0z"/>
	<path class="st0" d="M476.1,1000c3.5-2.7,7.2-2.7,10.7,0C483.3,1000,479.7,1000,476.1,1000z"/>
	<path class="st0" d="M514.1,1000c3.5-2.7,7.2-2.7,10.7,0C521.3,1000,517.7,1000,514.1,1000z"/>
	<path class="st0" d="M469.3,998.3c0.9,0,1.8,0,2.7,0c0,0.1,0,0.3,0,0.4c-0.9,0-1.8,0-2.7,0C469.3,998.6,469.3,998.4,469.3,998.3z"
		/>
	<path class="st0" d="M528.8,998.2c0.9,0,1.7-0.1,2.6-0.1c0,0.2,0,0.4,0,0.6c-0.9,0.1-1.7,0.1-2.6,0.2
		C528.9,998.7,528.9,998.5,528.8,998.2z"/>
	<path class="st0" d="M568.8,994.8c-0.7,0-1.3,0-2,0c0-0.1,0-0.2,0-0.4c0.7,0,1.3,0,2,0C568.8,994.6,568.8,994.7,568.8,994.8z"/>
</g>
<g>
	<path class="st0" d="M-412-206c0,54.7-45.3,100.4-99.7,100.4c-57.8,0-102.6-44.4-102.6-101.6c0-55.2,45.4-100.4,101.1-100.4
		C-456.9-307.6-412-262.5-412-206z"/>
	<path class="st0" d="M-264.5-206.3c0-30.8,0.6-61.6-0.2-92.4c-0.5-21-1.4-42.1-4.8-62.7c-6.8-40.2-28.6-69.8-68.4-83
		c-15.3-5.1-31.9-8.4-48-8.8c-68.2-1.5-136.4-2-204.7-2c-23.1,0-46.3,1.2-69.2,3.7c-53.2,5.7-88.7,38.4-97.1,91.2
		c-4.2,26.6-4.8,53.9-5.2,80.9c-0.8,48.3-0.6,96.7-0.1,145c0.3,24.7,1.3,49.5,3.8,74.1c5.2,52.6,39.1,89.4,91.1,97.2
		c26.2,3.9,53,4.7,79.6,5.1c49.5,0.8,99.1,0.6,148.6,0c24-0.3,48.1-1.4,72-3.8C-343.5,36-322,28-303.8,12.2
		c25.3-22.1,35.4-51.3,37.1-83.4c2.3-45,2.7-90,4-135C-263.4-206.3-263.9-206.3-264.5-206.3z M-514.1-50.3
		c-86.1-0.1-155.9-70.8-155.4-157.4c0.4-85.9,71.1-155.7,157-155.1c86.5,0.6,156.1,70.5,155.8,156.3
		C-357-119.5-426.9-50.2-514.1-50.3z"/>
	<path class="st0" d="M-513-706.8c-276.4,0-500.4,224-500.4,500.4C-1013.4,70-789.4,294-513,294c276.3,0,500.4-224,500.4-500.4
		C-12.6-482.7-236.7-706.8-513-706.8z M-211.7-68.1c-2.6,46.2-18.1,87.4-53.3,119.6c-27.3,24.9-60,37.9-96.1,41.5
		c-28.5,2.9-57.3,3.9-86.1,4.2c-53.5,0.5-107.1,0.6-160.6-0.6c-26-0.6-52.6-1.8-77.9-7.3c-72.8-16-118.8-68.1-127.3-142.6
		c-3.4-29.6-4.1-59.6-4.4-89.4c-0.5-53-0.2-106,0.5-159c0.4-29.4,1.1-58.9,9.6-87.4c19.6-65.6,64.2-104.3,131-115.1
		c32.3-5.2,65.6-5.6,98.5-6.1c53-0.8,106.1-0.3,159.2,0.4c30.8,0.4,61.8,1.1,91.6,10.6c63.9,20.4,101.4,64.6,111.9,129.8
		c5.3,33,4.9,66.9,6.2,100.5c0.9,22.8,0.2,45.8,0.2,68.6c0.4,0,0.7,0,1.1,0C-209-156.2-209.2-112.1-211.7-68.1z"/>
</g>
<g>
	<path d="M367.3,1702.2c-276.1,0-500,223.9-500,500s223.9,500,500,500s500-223.9,500-500S643.4,1702.2,367.3,1702.2z M598.5,2381
		c0.2,15.6-0.1,31.2,0.1,46.9c0,3.8-1.2,4.9-4.9,4.9c-29.5-0.1-58.9-0.2-88.4,0c-4.2,0-5.3-1.2-5.3-5.3c0.1-49.8,0.1-99.5,0.1-149.2
		c0-14.9-0.1-29.9-3.9-44.5c-4.5-17.3-13.8-30.4-32.3-34c-18.3-3.5-36.2-2.1-51.3,10.5c-8.8,7.3-14,17.1-16,28
		c-2.3,12.5-4.1,25.2-4.2,37.8c-0.5,50.1-0.2,100.3-0.2,150.5c0,6.1,0,6.1-6,6.1c-28.6,0-57.3,0-85.9,0c-5.7,0-5.7,0-5.7-5.5v-301.8
		c0-5.7,0-5.7,5.7-5.7c27.4,0,54.8,0,82.2,0c5.7,0,5.8,0,5.8,5.6c0,10.8,0,21.7,0,32.5v4c0.3,0,0.6,0.1,0.9,0.1
		c2.9-4.1,5.6-8.4,8.8-12.2c17.3-20.9,39.9-32.8,66.5-36.2c25.2-3.3,50-1,73.7,8.9c21.5,9,36.4,24.9,45.8,46
		c8,18.2,11.8,37.6,13.1,57.4C600.3,2277.5,597.8,2329.3,598.5,2381z M185.9,1964.5c31.3,0.3,56.8,24.7,57,57.1
		c0.1,31.5-26.1,56.9-57.2,56.8c-31.5-0.1-56.6-25.6-56.5-57.3C129.3,1989.7,154.7,1964.2,185.9,1964.5z M136.7,2427.7
		c0.1-100.9,0.1-201.9,0-302.9c0-3.8,0.9-5.2,5-5.2c29.2,0.2,58.3,0.2,87.5,0c4.2,0,5.3,1.2,5.3,5.4c-0.1,50.5-0.1,101.1-0.1,151.6
		v150.4c0,5.6,0,5.7-5.6,5.7c-29,0-58.1-0.1-87.1,0.1C137.7,2432.8,136.7,2431.7,136.7,2427.7z"/>
</g>
<path d="M2623.5-45.9c-276.1,0-500,223.9-500,500s223.9,500,500,500s500-223.9,500-500S2899.6-45.9,2623.5-45.9z M2948.7,485.1
	c-3.1,54.5-16.6,106.2-44.2,153.7c-20.7,35.5-47.4,65.5-80.7,89.5c-34.8,25-73.6,41.3-115.5,50.4c-25.7,5.6-51.7,8.3-77.8,8.2
	c-52.4-0.2-102.5-11.5-149.4-35.3c-46.4-23.5-85.3-56.1-116.6-97.6c-21.4-28.4-38.4-59.2-49.2-93.2c-4.6-14.4-8.1-29.1-11.6-43.8
	c-6.7-27.9-6.8-56.4-5.6-84.9c0.6-13.4,2.9-26.8,5.5-39.9c2.7-13.8,6-27.6,10.2-41c7.4-23.8,18-46.2,30.7-67.6
	c17.8-29.9,39.8-56.2,65.8-79.2c18.5-16.3,38.6-30.6,60.4-42.4c33.6-18.1,69.1-30.5,106.8-36.4c26.6-4.2,53.2-5.3,80.1-3
	c27.7,2.3,54.7,7.5,81,16.5c29.3,10,56.7,24,81.6,42.6c8.7,6.5,17.1,13.3,25.5,20c7.8,6.2,7.8,7.2,0.8,14.1
	c-22.1,22-44.1,44-66.2,66c-6,6-12,12-17.9,18.2c-2.6,2.7-4.5,2.8-7.4,0c-23-21.2-49.9-35.3-80.4-42.4c-25.4-5.9-51.3-6.3-76.9-2
	c-30.5,5.1-58.3,17.3-83.1,35.9c-30.4,22.8-52.9,51.9-67.3,87c-7.2,17.6-11.3,36-13.8,54.9c-2.1,16.1-0.9,31.9,0.7,47.8
	c1,9.7,3.6,19.2,6.2,28.6c6.5,23.7,17.2,45.4,32,65c31.5,41.9,72.7,68.7,124.4,77.8c44.2,7.8,87.1,2.2,127.5-17.8
	c44.9-22.2,73.5-57.8,84.8-106.9c1.2-5.1,0.5-5.8-5.4-5.8c-55.2,0-110.3,0-165.5,0c-8.5,0-8.5,0-8.5-8.5c0-38.7,0.1-77.3-0.1-116
	c0-4.4,0.9-6.8,6-6.8c45.8,0.2,91.7,0.2,137.5,0.3c4.5,0,9,0,13.5,0c49.3,0,98.7,0,148,0c8.2,0,8.1,0,9.6,7.9
	C2949.5,427.5,2950.3,456.4,2948.7,485.1z"/>
<path class="st0" d="M1669.2-429.9c-276.1,0-500,223.9-500,500s223.9,500,500,500s500-223.9,500-500S1945.3-429.9,1669.2-429.9z
	 M1978.3-64.9c0.4,6.4,0.4,12.9,0.4,19.4c0,198.6-151.2,427.6-427.6,427.6v-0.2c-81.7,0.2-161.7-23.1-230.4-67.3
	c11.9,1.4,23.8,2.1,35.7,2.2c67.7,0.1,133.4-22.6,186.6-64.5c-64.3-1.2-120.7-43.1-140.4-104.4c22.6,4.3,45.7,3.4,67.8-2.6
	c-70-14.1-120.5-75.7-120.5-147.3v-1.9c20.9,11.6,44.3,18.1,68.2,18.8c-66-44.2-86.4-132-46.5-200.7c76.3,93.9,188.9,151,309.7,157
	c-12.1-52.2,4.5-106.9,43.5-143.6c60.5-56.9,155.7-54,212.6,6.5c33.6-6.7,65.9-19,95.4-36.5c-11.2,34.8-34.7,64.4-66.1,83.1
	c29.8-3.5,58.9-11.5,86.3-23.7C2033.2-112.5,2007.7-86.1,1978.3-64.9z"/>
</svg>
