<svg width="249" height="63" viewBox="0 0 249 63" fill="none" xmlns="http://www.w3.org/2000/svg">
<path d="M39.1388 44.6513C39.1388 56.4638 29.6888 63 19.6087 63C19.6087 63 19.6087 63 19.53 63V51.66C19.6087 51.66 19.6087 51.66 19.6087 51.66C23.7825 51.66 27.4838 48.825 27.4838 44.6513C27.4838 40.005 23.1525 37.17 19.6087 37.0125C19.0575 37.0125 14.805 37.0125 10.2375 34.8862C3.70125 31.8938 0 26.3025 0 18.9788C0 7.16625 9.52875 0 19.6087 0C30.3975 0 38.745 7.245 38.9025 17.955C38.9813 18.1913 38.5875 18.585 38.0363 18.585H28.1925C27.72 18.585 27.3263 18.1913 27.3263 17.955C27.1688 13.4663 23.7038 11.34 19.6087 11.34C15.2775 11.34 11.7338 13.9388 11.7338 18.9788C11.7338 23.5463 15.5925 25.9088 19.6087 25.9088C20.0025 25.9088 24.4125 25.9088 28.9013 28.035C35.5163 31.1063 39.1388 37.2488 39.1388 44.6513Z" fill="#181D31"/>
<path d="M41.1074 10.08V0.70875C41.1074 0.39375 41.5012 0 41.9737 0H78.1199C78.6712 0 78.9862 0.39375 78.9862 0.70875V10.08C78.9862 10.4738 78.6712 10.7888 78.1199 10.7888H41.9737C41.5012 10.7888 41.1074 10.4738 41.1074 10.08ZM66.0712 22.8375V62.2913C66.0712 62.6063 65.6774 63 65.1262 63H54.9674C54.4162 63 54.1012 62.6063 54.1012 62.2913V22.8375H66.0712Z" fill="#181D31"/>
<path d="M110.802 63H81.7432C81.2707 63 80.877 62.6063 80.877 62.2913V0.70875C80.877 0.39375 81.2707 0 81.7432 0H110.802V11.4188H92.9257V25.6725H117.653C118.126 25.6725 118.519 25.9875 118.519 26.3813V36.3825C118.519 36.6975 118.126 37.0913 117.653 37.0913H92.9257V51.2663H110.802V63Z" fill="#181D31"/>
<path d="M162.854 18.9C162.854 37.4062 143.088 37.6425 141.592 37.6425H132.221V62.2913C132.221 62.6063 131.984 63 131.433 63H121.196C120.802 63 120.408 62.6063 120.408 62.2913V25.9875H132.221H141.592C143.167 25.9875 150.884 25.83 150.884 18.9C150.884 11.97 143.009 11.5763 141.592 11.5763H132.221H120.408V0.70875C120.408 0.39375 120.802 0 121.196 0H141.592C144.112 0 162.854 0.39375 162.854 18.9Z" fill="#181D31"/>
<path d="M162.854 51.1875H151.042V63H162.854V51.1875Z" fill="#B32347"/>
<path d="M185.227 10.1818C185.227 11.4091 185.006 12.4697 184.563 13.3636C184.119 14.2576 183.511 14.947 182.739 15.4318C181.966 15.9167 181.083 16.1591 180.091 16.1591C179.099 16.1591 178.216 15.9167 177.443 15.4318C176.671 14.947 176.063 14.2576 175.619 13.3636C175.176 12.4697 174.955 11.4091 174.955 10.1818C174.955 8.95455 175.176 7.89394 175.619 7C176.063 6.10606 176.671 5.41667 177.443 4.93182C178.216 4.44697 179.099 4.20455 180.091 4.20455C181.083 4.20455 181.966 4.44697 182.739 4.93182C183.511 5.41667 184.119 6.10606 184.563 7C185.006 7.89394 185.227 8.95455 185.227 10.1818ZM183.864 10.1818C183.864 9.17424 183.695 8.32386 183.358 7.63068C183.025 6.9375 182.572 6.41288 182 6.05682C181.432 5.70076 180.796 5.52273 180.091 5.52273C179.386 5.52273 178.748 5.70076 178.176 6.05682C177.608 6.41288 177.155 6.9375 176.818 7.63068C176.485 8.32386 176.318 9.17424 176.318 10.1818C176.318 11.1894 176.485 12.0398 176.818 12.733C177.155 13.4261 177.608 13.9508 178.176 14.3068C178.748 14.6629 179.386 14.8409 180.091 14.8409C180.796 14.8409 181.432 14.6629 182 14.3068C182.572 13.9508 183.025 13.4261 183.358 12.733C183.695 12.0398 183.864 11.1894 183.864 10.1818Z" fill="#181D31"/>
<path d="M188.756 10.75V16H187.415V7.27273H188.71V8.63636H188.824C189.028 8.19318 189.339 7.83712 189.756 7.56818C190.172 7.29545 190.71 7.15909 191.369 7.15909C191.96 7.15909 192.477 7.2803 192.921 7.52273C193.364 7.76136 193.708 8.125 193.955 8.61364C194.201 9.09848 194.324 9.71212 194.324 10.4545V16H192.983V10.5455C192.983 9.85985 192.805 9.32576 192.449 8.94318C192.093 8.55682 191.604 8.36364 190.983 8.36364C190.555 8.36364 190.172 8.45644 189.835 8.64205C189.502 8.82765 189.239 9.09848 189.046 9.45455C188.852 9.81061 188.756 10.2424 188.756 10.75Z" fill="#181D31"/>
<path d="M198.115 4.36364V16H196.774V4.36364H198.115Z" fill="#181D31"/>
<path d="M200.571 16V7.27273H201.912V16H200.571ZM201.253 5.81818C200.992 5.81818 200.766 5.72917 200.577 5.55114C200.391 5.37311 200.298 5.15909 200.298 4.90909C200.298 4.65909 200.391 4.44508 200.577 4.26705C200.766 4.08902 200.992 4 201.253 4C201.514 4 201.738 4.08902 201.923 4.26705C202.113 4.44508 202.207 4.65909 202.207 4.90909C202.207 5.15909 202.113 5.37311 201.923 5.55114C201.738 5.72917 201.514 5.81818 201.253 5.81818Z" fill="#181D31"/>
<path d="M205.709 10.75V16H204.368V7.27273H205.663V8.63636H205.777C205.982 8.19318 206.292 7.83712 206.709 7.56818C207.126 7.29545 207.663 7.15909 208.323 7.15909C208.913 7.15909 209.43 7.2803 209.874 7.52273C210.317 7.76136 210.662 8.125 210.908 8.61364C211.154 9.09848 211.277 9.71212 211.277 10.4545V16H209.936V10.5455C209.936 9.85985 209.758 9.32576 209.402 8.94318C209.046 8.55682 208.557 8.36364 207.936 8.36364C207.508 8.36364 207.126 8.45644 206.788 8.64205C206.455 8.82765 206.192 9.09848 205.999 9.45455C205.805 9.81061 205.709 10.2424 205.709 10.75Z" fill="#181D31"/>
<path d="M217.386 16.1818C216.546 16.1818 215.82 15.9962 215.21 15.625C214.604 15.25 214.136 14.7273 213.807 14.0568C213.481 13.3826 213.318 12.5985 213.318 11.7045C213.318 10.8106 213.481 10.0227 213.807 9.34091C214.136 8.6553 214.595 8.12121 215.182 7.73864C215.773 7.35227 216.462 7.15909 217.25 7.15909C217.705 7.15909 218.153 7.23485 218.597 7.38636C219.04 7.53788 219.443 7.78409 219.807 8.125C220.171 8.46212 220.46 8.90909 220.676 9.46591C220.892 10.0227 221 10.7083 221 11.5227V12.0909H214.273V10.9318H219.636C219.636 10.4394 219.538 10 219.341 9.61364C219.148 9.22727 218.871 8.92235 218.511 8.69886C218.155 8.47538 217.735 8.36364 217.25 8.36364C216.716 8.36364 216.254 8.49621 215.864 8.76136C215.477 9.02273 215.18 9.36364 214.972 9.78409C214.763 10.2045 214.659 10.6553 214.659 11.1364V11.9091C214.659 12.5682 214.773 13.1269 215 13.5852C215.231 14.0398 215.551 14.3864 215.96 14.625C216.369 14.8598 216.845 14.9773 217.386 14.9773C217.739 14.9773 218.057 14.928 218.341 14.8295C218.629 14.7273 218.877 14.5758 219.085 14.375C219.294 14.1705 219.455 13.9167 219.568 13.6136L220.864 13.9773C220.727 14.4167 220.498 14.803 220.176 15.1364C219.854 15.4659 219.457 15.7235 218.983 15.9091C218.51 16.0909 217.977 16.1818 217.386 16.1818Z" fill="#181D31"/>
<path d="M175.409 25.3636H177.091L181.046 35.0227H181.182L185.136 25.3636H186.818V37H185.5V28.1591H185.386L181.75 37H180.477L176.841 28.1591H176.727V37H175.409V25.3636Z" fill="#181D31"/>
<path d="M192.03 37.2045C191.477 37.2045 190.975 37.1004 190.524 36.892C190.073 36.6799 189.716 36.375 189.45 35.9773C189.185 35.5758 189.053 35.0909 189.053 34.5227C189.053 34.0227 189.151 33.6174 189.348 33.3068C189.545 32.9924 189.808 32.7462 190.138 32.5682C190.467 32.3902 190.831 32.2576 191.229 32.1705C191.63 32.0795 192.034 32.0076 192.439 31.9545C192.969 31.8864 193.399 31.8352 193.729 31.8011C194.062 31.7633 194.305 31.7008 194.456 31.6136C194.611 31.5265 194.689 31.375 194.689 31.1591V31.1136C194.689 30.553 194.536 30.1174 194.229 29.8068C193.926 29.4962 193.466 29.3409 192.848 29.3409C192.208 29.3409 191.706 29.4811 191.342 29.7614C190.979 30.0417 190.723 30.3409 190.575 30.6591L189.303 30.2045C189.53 29.6742 189.833 29.2614 190.212 28.9659C190.594 28.6667 191.011 28.4583 191.462 28.3409C191.916 28.2197 192.363 28.1591 192.803 28.1591C193.083 28.1591 193.405 28.1932 193.769 28.2614C194.136 28.3258 194.49 28.4602 194.831 28.6648C195.176 28.8693 195.462 29.178 195.689 29.5909C195.916 30.0038 196.03 30.5568 196.03 31.25V37H194.689V35.8182H194.621C194.53 36.0076 194.378 36.2102 194.166 36.4261C193.954 36.642 193.672 36.8258 193.32 36.9773C192.967 37.1288 192.537 37.2045 192.03 37.2045ZM192.234 36C192.765 36 193.212 35.8958 193.575 35.6875C193.943 35.4792 194.219 35.2102 194.405 34.8807C194.594 34.5511 194.689 34.2045 194.689 33.8409V32.6136C194.632 32.6818 194.507 32.7443 194.314 32.8011C194.125 32.8542 193.905 32.9015 193.655 32.9432C193.409 32.9811 193.168 33.0152 192.933 33.0455C192.702 33.072 192.515 33.0947 192.371 33.1136C192.022 33.1591 191.697 33.233 191.394 33.3352C191.094 33.4337 190.852 33.5833 190.666 33.7841C190.484 33.9811 190.394 34.25 190.394 34.5909C190.394 35.0568 190.566 35.4091 190.911 35.6477C191.259 35.8826 191.7 36 192.234 36Z" fill="#181D31"/>
<path d="M198.477 37V28.2727H199.773V29.5909H199.864C200.023 29.1591 200.311 28.8087 200.727 28.5398C201.144 28.2708 201.614 28.1364 202.136 28.1364C202.235 28.1364 202.358 28.1383 202.506 28.142C202.653 28.1458 202.765 28.1515 202.841 28.1591V29.5227C202.796 29.5114 202.691 29.4943 202.528 29.4716C202.369 29.4451 202.201 29.4318 202.023 29.4318C201.599 29.4318 201.22 29.5208 200.886 29.6989C200.557 29.8731 200.296 30.1155 200.102 30.4261C199.913 30.733 199.818 31.0833 199.818 31.4773V37H198.477Z" fill="#181D31"/>
<path d="M205.68 33.8182L205.658 32.1591H205.93L209.749 28.2727H211.408L207.34 32.3864H207.226L205.68 33.8182ZM204.43 37V25.3636H205.771V37H204.43ZM209.976 37L206.567 32.6818L207.521 31.75L211.68 37H209.976Z" fill="#181D31"/>
<path d="M216.433 37.1818C215.592 37.1818 214.867 36.9962 214.257 36.625C213.651 36.25 213.183 35.7273 212.854 35.0568C212.528 34.3826 212.365 33.5985 212.365 32.7045C212.365 31.8106 212.528 31.0227 212.854 30.3409C213.183 29.6553 213.642 29.1212 214.229 28.7386C214.82 28.3523 215.509 28.1591 216.297 28.1591C216.752 28.1591 217.2 28.2348 217.644 28.3864C218.087 28.5379 218.49 28.7841 218.854 29.125C219.217 29.4621 219.507 29.9091 219.723 30.4659C219.939 31.0227 220.047 31.7083 220.047 32.5227V33.0909H213.32V31.9318H218.683C218.683 31.4394 218.585 31 218.388 30.6136C218.195 30.2273 217.918 29.9223 217.558 29.6989C217.202 29.4754 216.782 29.3636 216.297 29.3636C215.763 29.3636 215.301 29.4962 214.911 29.7614C214.524 30.0227 214.227 30.3636 214.019 30.7841C213.81 31.2045 213.706 31.6553 213.706 32.1364V32.9091C213.706 33.5682 213.82 34.1269 214.047 34.5852C214.278 35.0398 214.598 35.3864 215.007 35.625C215.416 35.8598 215.892 35.9773 216.433 35.9773C216.786 35.9773 217.104 35.928 217.388 35.8295C217.676 35.7273 217.924 35.5758 218.132 35.375C218.341 35.1705 218.502 34.9167 218.615 34.6136L219.911 34.9773C219.774 35.4167 219.545 35.803 219.223 36.1364C218.901 36.4659 218.503 36.7235 218.03 36.9091C217.556 37.0909 217.024 37.1818 216.433 37.1818Z" fill="#181D31"/>
<path d="M225.882 28.2727V29.4091H221.359V28.2727H225.882ZM222.678 26.1818H224.019V34.5C224.019 34.8788 224.073 35.1629 224.183 35.3523C224.297 35.5379 224.441 35.6629 224.615 35.7273C224.793 35.7879 224.981 35.8182 225.178 35.8182C225.325 35.8182 225.447 35.8106 225.541 35.7955C225.636 35.7765 225.712 35.7614 225.769 35.75L226.041 36.9545C225.95 36.9886 225.823 37.0227 225.661 37.0568C225.498 37.0947 225.291 37.1136 225.041 37.1136C224.662 37.1136 224.291 37.0322 223.928 36.8693C223.568 36.7064 223.269 36.4583 223.03 36.125C222.795 35.7917 222.678 35.3712 222.678 34.8636V26.1818Z" fill="#181D31"/>
<path d="M227.899 37V28.2727H229.24V37H227.899ZM228.581 26.8182C228.32 26.8182 228.094 26.7292 227.905 26.5511C227.719 26.3731 227.627 26.1591 227.627 25.9091C227.627 25.6591 227.719 25.4451 227.905 25.267C228.094 25.089 228.32 25 228.581 25C228.842 25 229.066 25.089 229.252 25.267C229.441 25.4451 229.536 25.6591 229.536 25.9091C229.536 26.1591 229.441 26.3731 229.252 26.5511C229.066 26.7292 228.842 26.8182 228.581 26.8182Z" fill="#181D31"/>
<path d="M233.037 31.75V37H231.696V28.2727H232.992V29.6364H233.105C233.31 29.1932 233.62 28.8371 234.037 28.5682C234.454 28.2955 234.992 28.1591 235.651 28.1591C236.242 28.1591 236.759 28.2803 237.202 28.5227C237.645 28.7614 237.99 29.125 238.236 29.6136C238.482 30.0985 238.605 30.7121 238.605 31.4545V37H237.264V31.5455C237.264 30.8598 237.086 30.3258 236.73 29.9432C236.374 29.5568 235.886 29.3636 235.264 29.3636C234.836 29.3636 234.454 29.4564 234.117 29.642C233.783 29.8277 233.52 30.0985 233.327 30.4545C233.134 30.8106 233.037 31.2424 233.037 31.75Z" fill="#181D31"/>
<path d="M244.578 40.4545C243.93 40.4545 243.374 40.3712 242.908 40.2045C242.442 40.0417 242.054 39.8258 241.743 39.5568C241.436 39.2917 241.192 39.0076 241.01 38.7045L242.078 37.9545C242.199 38.1136 242.353 38.2955 242.538 38.5C242.724 38.7083 242.978 38.8883 243.3 39.0398C243.626 39.1951 244.052 39.2727 244.578 39.2727C245.283 39.2727 245.864 39.1023 246.323 38.7614C246.781 38.4205 247.01 37.8864 247.01 37.1591V35.3864H246.896C246.798 35.5455 246.658 35.7424 246.476 35.9773C246.298 36.2083 246.04 36.4148 245.703 36.5966C245.37 36.7746 244.919 36.8636 244.351 36.8636C243.646 36.8636 243.014 36.697 242.453 36.3636C241.896 36.0303 241.455 35.5455 241.129 34.9091C240.807 34.2727 240.646 33.5 240.646 32.5909C240.646 31.697 240.804 30.9186 241.118 30.2557C241.432 29.589 241.87 29.0739 242.43 28.7102C242.991 28.3428 243.639 28.1591 244.374 28.1591C244.942 28.1591 245.393 28.2538 245.726 28.4432C246.063 28.6288 246.321 28.8409 246.499 29.0795C246.68 29.3144 246.821 29.5076 246.919 29.6591H247.055V28.2727H248.351V37.25C248.351 38 248.18 38.6098 247.84 39.0795C247.502 39.553 247.048 39.8996 246.476 40.1193C245.908 40.3428 245.275 40.4545 244.578 40.4545ZM244.533 35.6591C245.071 35.6591 245.525 35.536 245.896 35.2898C246.268 35.0436 246.55 34.6894 246.743 34.2273C246.936 33.7652 247.033 33.2121 247.033 32.5682C247.033 31.9394 246.938 31.3845 246.749 30.9034C246.559 30.4223 246.279 30.0455 245.908 29.7727C245.537 29.5 245.078 29.3636 244.533 29.3636C243.965 29.3636 243.491 29.5076 243.112 29.7955C242.737 30.0833 242.455 30.4697 242.266 30.9545C242.08 31.4394 241.987 31.9773 241.987 32.5682C241.987 33.1742 242.082 33.7102 242.271 34.1761C242.465 34.6383 242.749 35.0019 243.124 35.267C243.502 35.5284 243.972 35.6591 244.533 35.6591Z" fill="#181D31"/>
<path d="M175.886 58H174.409L178.682 46.3636H180.136L184.409 58H182.932L179.455 48.2045H179.364L175.886 58ZM176.432 53.4545H182.386V54.7045H176.432V53.4545Z" fill="#181D31"/>
<path d="M189.563 61.4545C188.915 61.4545 188.358 61.3712 187.892 61.2045C187.426 61.0417 187.038 60.8258 186.727 60.5568C186.421 60.2917 186.176 60.0076 185.994 59.7045L187.063 58.9545C187.184 59.1136 187.337 59.2955 187.523 59.5C187.708 59.7083 187.962 59.8883 188.284 60.0398C188.61 60.1951 189.036 60.2727 189.563 60.2727C190.267 60.2727 190.849 60.1023 191.307 59.7614C191.765 59.4205 191.994 58.8864 191.994 58.1591V56.3864H191.881C191.782 56.5455 191.642 56.7424 191.46 56.9773C191.282 57.2083 191.025 57.4148 190.688 57.5966C190.354 57.7746 189.903 57.8636 189.335 57.8636C188.631 57.8636 187.998 57.697 187.438 57.3636C186.881 57.0303 186.439 56.5455 186.114 55.9091C185.792 55.2727 185.631 54.5 185.631 53.5909C185.631 52.697 185.788 51.9186 186.102 51.2557C186.417 50.589 186.854 50.0739 187.415 49.7102C187.975 49.3428 188.623 49.1591 189.358 49.1591C189.926 49.1591 190.377 49.2538 190.71 49.4432C191.047 49.6288 191.305 49.8409 191.483 50.0795C191.665 50.3144 191.805 50.5076 191.903 50.6591H192.04V49.2727H193.335V58.25C193.335 59 193.165 59.6098 192.824 60.0795C192.487 60.553 192.032 60.8996 191.46 61.1193C190.892 61.3428 190.26 61.4545 189.563 61.4545ZM189.517 56.6591C190.055 56.6591 190.51 56.536 190.881 56.2898C191.252 56.0436 191.534 55.6894 191.727 55.2273C191.921 54.7652 192.017 54.2121 192.017 53.5682C192.017 52.9394 191.922 52.3845 191.733 51.9034C191.544 51.4223 191.263 51.0455 190.892 50.7727C190.521 50.5 190.063 50.3636 189.517 50.3636C188.949 50.3636 188.475 50.5076 188.097 50.7955C187.722 51.0833 187.439 51.4697 187.25 51.9545C187.064 52.4394 186.972 52.9773 186.972 53.5682C186.972 54.1742 187.066 54.7102 187.256 55.1761C187.449 55.6383 187.733 56.0019 188.108 56.267C188.487 56.5284 188.957 56.6591 189.517 56.6591Z" fill="#181D31"/>
<path d="M199.449 58.1818C198.608 58.1818 197.883 57.9962 197.273 57.625C196.667 57.25 196.199 56.7273 195.869 56.0568C195.544 55.3826 195.381 54.5985 195.381 53.7045C195.381 52.8106 195.544 52.0227 195.869 51.3409C196.199 50.6553 196.657 50.1212 197.244 49.7386C197.835 49.3523 198.525 49.1591 199.313 49.1591C199.767 49.1591 200.216 49.2348 200.659 49.3864C201.102 49.5379 201.506 49.7841 201.869 50.125C202.233 50.4621 202.523 50.9091 202.739 51.4659C202.955 52.0227 203.063 52.7083 203.063 53.5227V54.0909H196.335V52.9318H201.699C201.699 52.4394 201.6 52 201.403 51.6136C201.21 51.2273 200.934 50.9223 200.574 50.6989C200.218 50.4754 199.797 50.3636 199.313 50.3636C198.778 50.3636 198.316 50.4962 197.926 50.7614C197.54 51.0227 197.243 51.3636 197.034 51.7841C196.826 52.2045 196.722 52.6553 196.722 53.1364V53.9091C196.722 54.5682 196.835 55.1269 197.063 55.5852C197.294 56.0398 197.614 56.3864 198.023 56.625C198.432 56.8598 198.907 56.9773 199.449 56.9773C199.801 56.9773 200.119 56.928 200.403 56.8295C200.691 56.7273 200.939 56.5758 201.148 56.375C201.356 56.1705 201.517 55.9167 201.631 55.6136L202.926 55.9773C202.79 56.4167 202.561 56.803 202.239 57.1364C201.917 57.4659 201.519 57.7235 201.046 57.9091C200.572 58.0909 200.04 58.1818 199.449 58.1818Z" fill="#181D31"/>
<path d="M206.443 52.75V58H205.102V49.2727H206.398V50.6364H206.511C206.716 50.1932 207.027 49.8371 207.443 49.5682C207.86 49.2955 208.398 49.1591 209.057 49.1591C209.648 49.1591 210.165 49.2803 210.608 49.5227C211.051 49.7614 211.396 50.125 211.642 50.6136C211.888 51.0985 212.011 51.7121 212.011 52.4545V58H210.671V52.5455C210.671 51.8598 210.493 51.3258 210.136 50.9432C209.78 50.5568 209.292 50.3636 208.671 50.3636C208.243 50.3636 207.86 50.4564 207.523 50.642C207.189 50.8277 206.926 51.0985 206.733 51.4545C206.54 51.8106 206.443 52.2424 206.443 52.75Z" fill="#181D31"/>
<path d="M218.007 58.1818C217.189 58.1818 216.484 57.9886 215.894 57.6023C215.303 57.2159 214.848 56.6837 214.53 56.0057C214.212 55.3276 214.053 54.553 214.053 53.6818C214.053 52.7955 214.216 52.0133 214.541 51.3352C214.871 50.6534 215.329 50.1212 215.916 49.7386C216.507 49.3523 217.197 49.1591 217.984 49.1591C218.598 49.1591 219.151 49.2727 219.644 49.5C220.136 49.7273 220.539 50.0455 220.854 50.4545C221.168 50.8636 221.363 51.3409 221.439 51.8864H220.098C219.996 51.4886 219.769 51.1364 219.416 50.8295C219.068 50.5189 218.598 50.3636 218.007 50.3636C217.484 50.3636 217.026 50.5 216.632 50.7727C216.242 51.0417 215.937 51.4223 215.717 51.9148C215.502 52.4034 215.394 52.9773 215.394 53.6364C215.394 54.3106 215.5 54.8977 215.712 55.3977C215.928 55.8977 216.231 56.286 216.621 56.5625C217.015 56.839 217.477 56.9773 218.007 56.9773C218.356 56.9773 218.672 56.9167 218.956 56.7955C219.24 56.6742 219.481 56.5 219.678 56.2727C219.875 56.0455 220.015 55.7727 220.098 55.4545H221.439C221.363 55.9697 221.176 56.4337 220.877 56.8466C220.581 57.2557 220.189 57.5814 219.7 57.8239C219.216 58.0625 218.651 58.1818 218.007 58.1818Z" fill="#181D31"/>
<path d="M224.263 61.2727C224.036 61.2727 223.833 61.2538 223.655 61.2159C223.477 61.1818 223.354 61.1477 223.286 61.1136L223.627 59.9318C223.952 60.0152 224.24 60.0455 224.49 60.0227C224.74 60 224.962 59.8883 225.155 59.6875C225.352 59.4905 225.532 59.1705 225.695 58.7273L225.945 58.0455L222.717 49.2727H224.172L226.581 56.2273H226.672L229.081 49.2727H230.536L226.831 59.2727C226.664 59.7235 226.458 60.0966 226.212 60.392C225.966 60.6913 225.68 60.9129 225.354 61.0568C225.032 61.2008 224.668 61.2727 224.263 61.2727Z" fill="#181D31"/>
</svg>
