<?xml version="1.0" encoding="utf-8"?>
<!-- Generator: Adobe Illustrator 25.2.1, SVG Export Plug-In . SVG Version: 6.00 Build 0)  -->
<svg version="1.1" id="Слой_1" xmlns="http://www.w3.org/2000/svg" xmlns:xlink="http://www.w3.org/1999/xlink" x="0px" y="0px"
	 viewBox="0 0 1000 1000" style="enable-background:new 0 0 1000 1000;" xml:space="preserve">
<style type="text/css">
	.st0{fill:#181D30;}
</style>
<g>
	<path class="st0" d="M3872.5,331c19.5,0,39,0,58.5,0c1.3,0.3,2.5,0.7,3.8,0.9c10.2,1,20.4,1.7,30.5,2.9
		c30.9,3.6,61.1,10.6,90.7,20.2c19,6.2,37.6,13.6,55.8,21.9c21.2,9.7,41.4,21.1,60.9,33.7c16.3,10.5,32,21.7,46.8,34.2
		c10.1,8.6,20.1,17.4,29.8,26.6c12.6,11.9,24.4,24.7,35.5,38.1c11.4,13.8,22.4,27.9,32.3,42.8c15.1,22.8,28.6,46.4,39.9,71.4
		c11.4,25.2,20.8,51.2,27.9,77.9c8.8,33.5,15.1,67.5,15.6,102.3c0,1.4,0.6,2.8,0.9,4.3c0,15.3,0,30.6,0,45.9
		c-0.3,1.7-0.9,3.5-0.9,5.2c0.3,16-2,31.8-4.4,47.5c-4.9,32.4-12.9,64-24.2,94.8c-12.4,34-28.3,66.4-47.7,96.9
		c-21.2,33.3-45.8,63.8-74.4,91.1c-11.5,11-23.3,21.7-35.7,31.7c-26.5,21.2-54.8,39.6-84.9,55.1c-24,12.3-49,22.5-74.8,30.7
		c-22,7.1-44.4,12.6-67.2,16.5c-7.7,1.3-8.4,0.8-8.4-7.2c0-111.2,0-222.4,0-333.6c0-7.9,0-7.9,7.8-7.9c33.3,0,66.7,0,100,0
		c1.5,0,2.9,0,4.4,0c4-0.2,4.3-0.4,5-4.4c2.5-16,5.1-32.1,7.6-48.2c4.2-27.1,8.3-54.3,12.4-81.4c0.4-2.7,0.6-5.4,0.9-8.7
		c-2.6-0.2-4.8-0.5-7-0.5c-41,0-81.9,0-122.9,0c-7.9,0-8.2-0.2-8.2-8.3c0-28.9-0.1-57.9,0-86.8c0-11.1,1.7-22,5.6-32.5
		c4.2-11.3,10.4-21.3,20.1-28.8c14.2-11,30.6-15.8,48.2-16.2c21-0.5,41.9-0.1,62.9-0.1c7.6,0,7.6,0,7.6-7.6c0-35.6,0-71.2,0-106.8
		c0-1.5,0-2.9-0.1-4.4c-0.1-2.3-1.2-3.6-3.5-3.9c-4-0.6-8-1.3-12-1.9c-24-3.2-48.1-5.7-72.2-6.8c-16.9-0.7-33.8-1-50.7,1
		c-20.6,2.3-40.6,7.1-59.8,15.3c-22.2,9.5-41.3,23.4-57,41.6c-18.6,21.4-30.1,46.5-36.9,73.9c-5.3,21.4-6.8,43.3-7.1,65.3
		c-0.4,33-0.1,66-0.1,99c0,8.1,0,8.1-8.1,8.1c-37.1,0-74.1,0-111.2,0c-7.5,0-7.5,0-7.5,7.7c0,42.6,0,85.2,0,127.8
		c0,7.8,0,7.9,7.8,7.9c36.6,0,73.2,0,109.7,0c1.5,0,2.9,0,4.4,0c4,0.2,4.7,0.8,4.9,5c0,0.8,0,1.6,0,2.4c0,111.5,0,223.1,0,334.6
		c0,1.3,0,2.6-0.1,3.9c-0.1,2.5-1.6,3.4-3.9,3.3c-1-0.1-1.9-0.2-2.9-0.4c-24.3-4-48.1-10-71.4-17.7c-17.5-5.7-34.5-12.5-51.3-20.1
		c-17.6-8-34.7-17-51.3-27.1c-16-9.7-31.4-20.2-46.2-31.7c-16.3-12.6-31.9-26.1-46.6-40.6c-6-5.9-11.7-12.1-17.4-18.4
		c-5.7-6.2-11.3-12.5-16.7-19c-13.1-15.8-25.3-32.2-36.1-49.7c-6.9-11.2-13.8-22.4-20-34c-15.3-28.8-27.8-58.7-37.1-90
		c-10.2-34.2-17.1-69.1-19.6-104.7c-0.2-3-1.2-6-1.8-9c0-20.5,0-41,0-61.5c0.6-3.3,1.4-6.6,1.8-10c1.6-12.9,2.6-25.8,4.6-38.7
		c4.6-30.1,12.2-59.5,22.4-88.2c6.4-18.1,13.8-35.8,22.3-53c11.4-23.2,24.5-45.5,39.5-66.6c14.3-20.1,29.5-39.6,46.9-57.2
		c7.4-7.5,14.9-15,22.4-22.4c4.1-4,8.2-7.9,12.6-11.4c11.5-9.2,23.1-18.4,34.9-27.4c17.9-13.6,37.1-25.2,56.8-35.8
		c30.9-16.5,63.2-29.7,96.9-39.4c34.6-9.9,69.8-16.4,105.9-18.4C3869.7,331.8,3871.1,331.3,3872.5,331z"/>
	<path class="st0" d="M3877.4,1331c3.5-2.7,7.2-2.7,10.7,0C3884.6,1331,3881,1331,3877.4,1331z"/>
	<path class="st0" d="M3915.5,1331c3.5-2.7,7.2-2.7,10.7,0C3922.6,1331,3919,1331,3915.5,1331z"/>
	<path class="st0" d="M3870.6,1329.3c0.9,0,1.8,0,2.7,0c0,0.1,0,0.3,0,0.4c-0.9,0-1.8,0-2.7,0
		C3870.6,1329.5,3870.6,1329.4,3870.6,1329.3z"/>
	<path class="st0" d="M3930.2,1329.2c0.9,0,1.7-0.1,2.6-0.1c0,0.2,0,0.4,0,0.6c-0.9,0.1-1.7,0.1-2.6,0.2
		C3930.2,1329.7,3930.2,1329.4,3930.2,1329.2z"/>
	<path class="st0" d="M3970.1,1325.8c-0.7,0-1.3,0-2,0c0-0.1,0-0.2,0-0.4c0.7,0,1.3,0,2,0
		C3970.1,1325.6,3970.1,1325.7,3970.1,1325.8z"/>
</g>
<g>
	<path class="st0" d="M-716.6-1254.8c0,54.7-45.3,100.4-99.7,100.4c-57.8,0-102.6-44.4-102.6-101.6c0-55.2,45.4-100.4,101.1-100.4
		C-761.5-1356.5-716.6-1311.4-716.6-1254.8z"/>
	<path class="st0" d="M-569.1-1255.1c0-30.8,0.6-61.6-0.2-92.4c-0.5-20.9-1.4-42.1-4.8-62.7c-6.8-40.2-28.6-69.8-68.4-83
		c-15.3-5.1-31.9-8.4-48-8.8c-68.2-1.5-136.4-2-204.7-2c-23.1,0-46.3,1.2-69.2,3.7c-53.2,5.7-88.7,38.4-97.1,91.2
		c-4.2,26.6-4.8,53.9-5.2,80.9c-0.8,48.3-0.6,96.7-0.1,145c0.3,24.7,1.3,49.5,3.8,74.1c5.2,52.6,39.1,89.4,91.1,97.2
		c26.2,3.9,53,4.7,79.6,5.1c49.5,0.8,99.1,0.6,148.6,0c24-0.3,48.1-1.4,72-3.8c23.4-2.3,44.9-10.3,63.1-26.1
		c25.3-22.1,35.4-51.3,37.1-83.4c2.3-45,2.7-90,4-135C-567.9-1255.1-568.5-1255.1-569.1-1255.1z M-818.7-1099.2
		c-86.1-0.1-155.9-70.8-155.4-157.4c0.4-85.9,71.1-155.7,157-155.1c86.5,0.6,156.1,70.5,155.8,156.3
		C-661.6-1168.3-731.4-1099.1-818.7-1099.2z"/>
	<path class="st0" d="M-817.6-1755.6c-276.3,0-500.4,224-500.4,500.4c0,276.3,224,500.4,500.4,500.4c276.3,0,500.4-224,500.4-500.4
		C-317.2-1531.6-541.2-1755.6-817.6-1755.6z M-516.3-1116.9c-2.6,46.2-18.1,87.4-53.3,119.6c-27.3,24.9-60,37.9-96.1,41.5
		c-28.5,2.9-57.3,3.9-86.1,4.2c-53.5,0.5-107,0.6-160.5-0.6c-26-0.6-52.6-1.8-77.9-7.3c-72.8-16-118.8-68.1-127.3-142.6
		c-3.4-29.6-4.1-59.6-4.4-89.4c-0.5-53-0.2-106,0.5-159c0.4-29.4,1.1-58.9,9.6-87.4c19.6-65.6,64.2-104.3,131-115.1
		c32.3-5.2,65.6-5.6,98.5-6.1c53-0.8,106.1-0.3,159.2,0.4c30.8,0.4,61.8,1.1,91.6,10.6c63.9,20.4,101.4,64.6,111.9,129.8
		c5.3,33,4.9,66.9,6.2,100.5c0.9,22.8,0.2,45.8,0.2,68.6c0.4,0,0.7,0,1.1,0C-513.5-1205.1-513.8-1160.9-516.3-1116.9z"/>
</g>
<g>
	<path class="st0" d="M579.3-1848.4c-276.1,0-500,223.9-500,500s223.9,500,500,500s500-223.9,500-500S855.5-1848.4,579.3-1848.4z
		 M810.6-1169.5c0.2,15.6-0.1,31.2,0.1,46.9c0,3.8-1.2,4.9-4.9,4.9c-29.5-0.1-58.9-0.2-88.4,0c-4.2,0-5.3-1.2-5.3-5.3
		c0.1-49.8,0.1-99.5,0.1-149.2c0-14.9-0.1-29.9-3.9-44.5c-4.5-17.3-13.8-30.4-32.3-34c-18.3-3.5-36.2-2.1-51.3,10.5
		c-8.8,7.3-14,17.1-16,28.1c-2.3,12.5-4.1,25.2-4.2,37.8c-0.5,50.2-0.2,100.3-0.2,150.5c0,6.1,0,6.1-6,6.1c-28.6,0-57.3,0-85.9,0
		c-5.7,0-5.7,0-5.7-5.5V-1425c0-5.7,0-5.7,5.7-5.7c27.4,0,54.8,0,82.2,0c5.7,0,5.8,0,5.8,5.6c0,10.8,0,21.7,0,32.5v4
		c0.3,0,0.6,0.1,0.9,0.1c2.9-4.1,5.6-8.4,8.8-12.2c17.3-20.9,39.9-32.8,66.5-36.2c25.2-3.3,50-1,73.7,8.9c21.5,9,36.4,24.9,45.8,46
		c8,18.2,11.8,37.6,13.1,57.3C812.4-1273.1,809.9-1221.3,810.6-1169.5z M398-1586c31.3,0.3,56.8,24.7,57,57.1
		c0.1,31.5-26.1,56.9-57.2,56.8c-31.5-0.1-56.6-25.6-56.5-57.3C341.4-1560.9,366.8-1586.3,398-1586z M348.7-1122.9
		c0.1-101,0.1-201.9,0-302.9c0-3.8,0.9-5.2,5-5.2c29.2,0.2,58.3,0.2,87.5,0c4.2,0,5.3,1.2,5.3,5.4c-0.1,50.6-0.1,101.1-0.1,151.6
		v150.4c0,5.6,0,5.7-5.6,5.7c-29,0-58.1-0.1-87.1,0.1C349.8-1117.7,348.7-1118.9,348.7-1122.9z"/>
</g>
<path class="st0" d="M2901.3-1356.4c-276.1,0-500,223.9-500,500s223.9,500,500,500s500-223.9,500-500S3177.5-1356.4,2901.3-1356.4z
	 M3226.5-825.4c-3.1,54.5-16.6,106.2-44.2,153.7c-20.7,35.5-47.4,65.5-80.7,89.5c-34.8,25-73.6,41.3-115.5,50.4
	c-25.7,5.6-51.7,8.3-77.8,8.2c-52.4-0.2-102.5-11.5-149.4-35.3c-46.4-23.5-85.3-56.1-116.6-97.6c-21.4-28.4-38.4-59.2-49.2-93.2
	c-4.6-14.4-8.1-29.1-11.6-43.8c-6.7-27.9-6.8-56.4-5.6-84.9c0.6-13.4,2.9-26.8,5.5-39.9c2.7-13.8,6-27.6,10.2-41
	c7.4-23.8,18-46.2,30.7-67.6c17.8-29.9,39.8-56.2,65.8-79.2c18.5-16.3,38.6-30.6,60.4-42.4c33.6-18.1,69.1-30.5,106.8-36.4
	c26.6-4.2,53.2-5.3,80.1-3c27.7,2.3,54.7,7.5,81,16.5c29.3,10,56.7,24.1,81.6,42.6c8.7,6.5,17.1,13.3,25.5,20
	c7.8,6.2,7.8,7.2,0.8,14.1c-22.1,22-44.2,44-66.2,66c-6,6-12,12-17.9,18.2c-2.6,2.7-4.5,2.8-7.4,0c-23-21.2-49.9-35.3-80.4-42.4
	c-25.4-5.9-51.3-6.3-76.9-2c-30.5,5.1-58.3,17.3-83.1,35.9c-30.4,22.8-52.9,51.9-67.3,87c-7.2,17.6-11.3,36-13.8,54.9
	c-2.1,16.1-0.9,31.9,0.7,47.8c1,9.7,3.6,19.2,6.2,28.6c6.5,23.7,17.2,45.4,32,65c31.5,41.9,72.7,68.7,124.4,77.8
	c44.2,7.8,87.1,2.2,127.5-17.8c44.9-22.2,73.5-57.8,84.8-106.9c1.2-5.1,0.5-5.8-5.4-5.8c-55.2,0-110.3,0-165.5,0
	c-8.5,0-8.5,0-8.5-8.5c0-38.7,0.1-77.3-0.1-116c0-4.4,0.9-6.8,6-6.8c45.8,0.2,91.7,0.2,137.5,0.3c4.5,0,9,0,13.5,0
	c49.3,0,98.7,0,148,0c8.2,0,8.1,0,9.6,7.9C3227.3-883,3228.2-854.2,3226.5-825.4z"/>
<path class="st0" d="M1802.4-1654.4c-276.1,0-500,223.9-500,500s223.9,500,500,500s500-223.9,500-500S2078.6-1654.4,1802.4-1654.4z
	 M2111.5-1289.4c0.4,6.4,0.4,12.9,0.4,19.4c0,198.6-151.2,427.6-427.6,427.6v-0.2c-81.7,0.2-161.7-23.1-230.4-67.3
	c11.9,1.4,23.8,2.1,35.7,2.2c67.7,0.1,133.4-22.6,186.6-64.5c-64.3-1.2-120.7-43.1-140.4-104.4c22.6,4.3,45.7,3.4,67.8-2.6
	c-70-14.1-120.5-75.7-120.5-147.3v-1.9c20.9,11.6,44.3,18.1,68.2,18.8c-66-44.2-86.4-132-46.5-200.7c76.3,93.9,188.9,151,309.7,157
	c-12.1-52.2,4.5-106.9,43.5-143.6c60.5-56.9,155.7-54,212.6,6.5c33.6-6.7,65.9-19,95.4-36.5c-11.2,34.8-34.7,64.4-66.1,83.1
	c29.8-3.5,58.9-11.5,86.3-23.7C2166.4-1337,2141-1310.7,2111.5-1289.4z"/>
<g>
	<path class="st0" d="M663.8,107.9l32.6-67.5l14.3,6.9l-27,55.7l28.9,14l-5.7,11.8L663.8,107.9z"/>
	<path class="st0" d="M714,132.8l41.5-62.4l42,28l-7.2,10.9l-28.8-19.2l-9.9,14.9l26.7,17.8l-7.2,10.9l-26.7-17.8l-9.9,14.9l29,19.3
		l-7.2,10.9L714,132.8z"/>
	<path class="st0" d="M803.5,119l8.8-9.7l45.6,41.3l-8.8,9.7l-17-15.4l-41.5,45.9L779,180.3l41.5-45.9L803.5,119z"/>
	<path class="st0" d="M876.9,172.6l-5.9,5.3c-1.7,1.5-3.7,2.7-6,3.6c-2.3,0.9-4.7,1.5-7.2,1.8s-4.8,0.3-7.1,0l-1.6-7.8
		c2.2-0.4,4.6-1,6.9-1.9c2.4-0.9,4.7-2.3,7-4.4l5.9-5.3L876.9,172.6z"/>
	<path class="st0" d="M894.6,230.5c2.2-2,3.3-4.3,3.4-7.1c0-2.8-1.1-5.7-3.3-8.8c-1.5-2.1-3.1-3.6-4.7-4.7s-3.2-1.5-4.8-1.5
		s-3,0.5-4.3,1.4c-1.1,0.7-1.9,1.7-2.3,2.8c-0.4,1.1-0.6,2.3-0.6,3.6c0.1,1.3,0.3,2.7,0.7,4.2s1,3,1.6,4.5l2.7,6.4
		c1.3,3.1,2.3,6.1,2.9,9c0.6,2.9,0.8,5.7,0.5,8.4s-1,5.2-2.3,7.5c-1.3,2.3-3.2,4.4-5.7,6.3c-3.7,2.7-7.6,4.1-11.7,4.2
		c-4.1,0.1-8.1-1-12.2-3.5c-4-2.4-7.8-6.1-11.4-11c-3.6-4.9-5.9-9.7-7-14.4s-1-9.1,0.5-13.3s4.4-7.9,8.7-11.2l9,12.4
		c-1.9,1.6-3.2,3.4-3.8,5.4s-0.6,4.1,0,6.4c0.6,2.2,1.7,4.5,3.3,6.7s3.3,3.8,5.1,5c1.8,1.1,3.6,1.8,5.4,1.8c1.8,0.1,3.4-0.4,4.8-1.5
		c1.4-1,2.2-2.2,2.6-3.7c0.3-1.5,0.3-3.2-0.2-5.2s-1.2-4.3-2.3-6.9l-3.1-7.8c-2.5-6-3.5-11.5-3-16.3c0.5-4.9,3-8.9,7.5-12.2
		c3.7-2.7,7.6-4,11.8-4s8.3,1.2,12.4,3.5c4.1,2.4,7.7,5.7,10.9,10.2c3.3,4.5,5.4,9,6.3,13.5c0.9,4.5,0.7,8.7-0.7,12.5
		c-1.4,3.9-3.9,7.1-7.4,9.8L894.6,230.5z"/>
	<path class="st0" d="M931.7,274l11.9-5.3l25.1,56.2l-11.9,5.3l-9.4-20.9l-56.5,25.3l-6.4-14.3L941,295L931.7,274z"/>
	<path class="st0" d="M903.4,366.5l-4.6-16.3l79.1,4.5l5.5,19.6l-65.1,45.2l-4.6-16.3l50.5-33.8l-0.2-0.6L903.4,366.5z M931.5,357.4
		l10.9,38.6l-11.9,3.4l-10.9-38.6L931.5,357.4z"/>
	<path class="st0" d="M918.6,426l74.4-9.1l1.9,15.7l-61.4,7.5l3.9,31.9l-13,1.6L918.6,426z"/>
	<path class="st0" d="M925.1,481.6l74.9,1.7l-0.4,15.8l-33-0.8v1L999,527l-0.4,19l-32.9-28.6l-42,27.2l0.4-18.9l31.3-19.8l-9.3-8
		l-21.3-0.5L925.1,481.6z"/>
	<path class="st0" d="M919.6,559.1c0.3-2.4,1.5-4.3,3.4-5.8s4.1-2,6.5-1.7s4.3,1.5,5.7,3.4c1.5,1.9,2,4.1,1.7,6.5
		c-0.3,2.3-1.4,4.2-3.4,5.7c-1.9,1.5-4.1,2.1-6.4,1.8c-1.6-0.2-3-0.8-4.2-1.8s-2.1-2.2-2.7-3.6C919.5,562.2,919.3,560.7,919.6,559.1
		z"/>
	<path class="st0" d="M913.8,598.4l71.9,21.1l-4.5,15.2l-59.4-17.4l-9,30.8l-12.5-3.7L913.8,598.4z"/>
	<path class="st0" d="M897.5,652l68.3,30.8l-20.7,46l-11.9-5.4l14.2-31.6l-16.3-7.3l-13.2,29.2l-11.9-5.4l13.2-29.2l-16.3-7.4
		l-14.3,31.7l-11.9-5.4L897.5,652z"/>
	<path class="st0" d="M925.6,738.2l11,7.1L903.2,797l-11-7.1l12.4-19.3l-52-33.5l8.5-13.2l52,33.5L925.6,738.2z"/>
	<path class="st0" d="M884.7,819.2l-6.2-5c-1.7-1.4-3.3-3.2-4.5-5.3c-1.3-2.1-2.3-4.4-3-6.8c-0.7-2.4-1.1-4.7-1.1-7l7.5-2.8
		c0.7,2.2,1.7,4.3,3,6.5c1.2,2.2,3.1,4.3,5.5,6.2l6.2,5L884.7,819.2z"/>
	<path class="st0" d="M830.5,846.1c2.3,1.9,4.8,2.6,7.5,2.2c2.7-0.4,5.4-2,8.1-4.7c1.8-1.8,3.1-3.6,3.8-5.4c0.7-1.8,1-3.4,0.7-5
		c-0.2-1.6-0.9-2.9-2.1-4c-0.9-1-2-1.6-3.1-1.9c-1.2-0.3-2.4-0.3-3.6,0c-1.3,0.3-2.6,0.7-4,1.4s-2.8,1.4-4.2,2.3l-5.9,3.7
		c-2.8,1.8-5.6,3.3-8.4,4.3c-2.8,1.1-5.5,1.7-8.2,1.9s-5.3-0.2-7.8-1.1s-4.9-2.5-7.1-4.6c-3.2-3.2-5.3-6.9-6-10.9
		c-0.8-4-0.3-8.2,1.4-12.6c1.7-4.4,4.7-8.7,9-13.1c4.3-4.3,8.6-7.4,13.1-9.3c4.5-1.9,8.9-2.4,13.2-1.6c4.4,0.8,8.5,3,12.4,6.7
		l-10.8,10.9c-1.9-1.6-3.9-2.6-6-2.9c-2.1-0.3-4.2,0.1-6.3,1s-4.1,2.4-6.1,4.3c-1.9,1.9-3.2,3.8-4.1,5.8c-0.8,2-1.2,3.8-0.9,5.6
		c0.2,1.8,1,3.3,2.3,4.5c1.2,1.2,2.5,1.8,4.1,1.9s3.2-0.2,5.1-1c1.9-0.8,4-1.9,6.4-3.4l7.2-4.4c5.5-3.4,10.7-5.3,15.6-5.6
		c4.9-0.3,9.3,1.5,13.2,5.4c3.2,3.2,5.2,6.8,5.9,10.9c0.7,4.1,0.2,8.4-1.5,12.8c-1.7,4.4-4.4,8.5-8.3,12.4c-3.9,4-8,6.7-12.3,8.4
		c-4.3,1.6-8.4,2.1-12.5,1.3c-4-0.7-7.7-2.6-10.9-5.7L830.5,846.1z"/>
	<path class="st0" d="M793.6,889.6l7.2,10.9l-51.3,33.9l-7.2-10.9l19.1-12.7l-34.1-51.6l13.1-8.6l34.1,51.6L793.6,889.6z"/>
	<path class="st0" d="M697.7,876.9l15.4-7.2l8.5,78.8l-18.5,8.7l-55.3-56.8l15.4-7.2l41.6,44.3l0.5-0.3L697.7,876.9z M711.2,903.1
		l-36.3,17.1l-5.3-11.2l36.3-17.1L711.2,903.1z"/>
	<path class="st0" d="M641.5,901.7l21.1,71.9l-15.2,4.5L630,918.7l-30.8,9l-3.7-12.5L641.5,901.7z"/>
	<path class="st0" d="M587.8,917.1l10.4,74.2l-15.7,2.2l-4.6-32.7l-1,0.1l-22.1,36.4l-18.8,2.6l22.9-37.1l-33.6-37.1l18.8-2.6
		l24.6,27.7l6.4-10.5l-2.9-21.1L587.8,917.1z"/>
	<path class="st0" d="M510.3,924.2c2.4-0.1,4.5,0.7,6.3,2.4s2.7,3.7,2.7,6.1c0.1,2.4-0.7,4.5-2.4,6.2s-3.7,2.7-6.1,2.7
		c-2.3,0.1-4.4-0.7-6.2-2.4c-1.8-1.7-2.7-3.7-2.8-6.1c0-1.6,0.3-3.1,1.1-4.4c0.8-1.3,1.8-2.4,3.1-3.3
		C507.3,924.6,508.7,924.2,510.3,924.2z"/>
	<path class="st0" d="M470.6,924.9l-9,74.4l-15.7-1.9l7.5-61.4l-31.9-3.9l1.6-13L470.6,924.9z"/>
	<path class="st0" d="M415,917.5L395.8,990L347,977l3.3-12.6l33.5,8.9l4.6-17.3l-31-8.2l3.3-12.6l31,8.2l4.6-17.3l-33.6-8.9
		l3.3-12.6L415,917.5z"/>
	<path class="st0" d="M334.6,959.4l-5.2,12l-56.5-24.5l5.2-12l21,9.1l24.6-56.8l14.4,6.2l-24.6,56.8L334.6,959.4z"/>
	<path class="st0" d="M247.9,932.2l3.9-6.9c1.1-2,2.6-3.7,4.5-5.3s4-2.9,6.2-4c2.3-1.1,4.5-1.8,6.7-2.3l4,6.9c-2,1.1-4,2.4-6,4
		s-3.7,3.7-5.2,6.4l-3.9,6.9L247.9,932.2z"/>
	<path class="st0" d="M212.6,883c-1.5,2.6-1.8,5.2-0.9,7.8c0.9,2.6,2.9,5,6,7.2c2.1,1.5,4.1,2.5,6,2.9s3.6,0.4,5.1-0.1
		s2.7-1.4,3.6-2.7c0.8-1.1,1.3-2.2,1.3-3.4s-0.1-2.4-0.6-3.6c-0.5-1.2-1.2-2.5-2-3.7c-0.9-1.3-1.9-2.5-3-3.8l-4.6-5.2
		c-2.2-2.5-4.1-5-5.7-7.6c-1.5-2.6-2.6-5.2-3.2-7.8c-0.6-2.6-0.7-5.2-0.2-7.8s1.6-5.2,3.4-7.8c2.7-3.7,5.9-6.3,9.7-7.7
		s8-1.6,12.6-0.6s9.4,3.3,14.4,6.8c4.9,3.5,8.7,7.3,11.3,11.4c2.6,4.1,3.8,8.4,3.8,12.8c-0.1,4.4-1.6,8.9-4.6,13.3l-12.5-8.9
		c1.3-2.1,1.9-4.3,1.9-6.4c-0.1-2.1-0.8-4.1-2-6.1c-1.3-1.9-3-3.7-5.3-5.3c-2.2-1.6-4.3-2.6-6.4-3.1s-4-0.5-5.7,0s-3.1,1.5-4.1,3
		c-1,1.4-1.4,2.8-1.2,4.3c0.1,1.5,0.8,3.1,1.8,4.9c1.1,1.8,2.5,3.7,4.4,5.8l5.5,6.4c4.3,4.9,6.9,9.8,8,14.5c1.1,4.8,0,9.4-3.2,13.9
		c-2.6,3.7-5.9,6.2-9.8,7.6s-8.2,1.6-12.8,0.6c-4.6-0.9-9.1-3-13.6-6.1c-4.5-3.2-8-6.8-10.2-10.8c-2.3-4-3.4-8-3.3-12.1
		c0.1-4.1,1.4-8,3.9-11.7L212.6,883z"/>
	<path class="st0" d="M163.6,853.6l-9.6,8.9l-41.8-45.2l9.6-8.9l15.6,16.8l45.4-42l10.6,11.5l-45.4,42L163.6,853.6z"/>
	<path class="st0" d="M160.7,757l9.6,14l-76.4,21.2l-11.6-16.8l47-63.8l9.6,14L102,773.9l0.3,0.5L160.7,757z M137,774.6l-22.8-33
		l10.2-7l22.8,33L137,774.6z"/>
	<path class="st0" d="M127,705.5l-67.5,32.6l-6.9-14.3l55.7-26.9l-14-28.9l11.8-5.7L127,705.5z"/>
	<path class="st0" d="M103,655l-71.5,22.4l-4.7-15.1l31.5-9.9l-0.3-0.9l-39.6-15.9l-5.7-18.1L53,634l31.1-39.2l5.7,18.1l-23.3,28.8
		l11.4,4.6l20.3-6.4L103,655z"/>
	<path class="st0" d="M83.4,579.8c0.4,2.4,0,4.6-1.4,6.6s-3.2,3.2-5.6,3.7c-2.3,0.4-4.5,0-6.5-1.4s-3.2-3.2-3.7-5.6
		c-0.4-2.3,0-4.5,1.4-6.5s3.2-3.3,5.6-3.7c1.6-0.3,3.1-0.2,4.6,0.4c1.5,0.6,2.7,1.4,3.7,2.6C82.4,576.9,83.1,578.3,83.4,579.8z"/>
	<path class="st0" d="M76.3,540.8l-74.9,3.1L0.8,528l61.8-2.5l-1.3-32.1l13.1-0.5L76.3,540.8z"/>
	<path class="st0" d="M74.6,484.7L0,477.6l4.8-50.3l13,1.2L14.5,463l17.8,1.7l3-31.9l13,1.2l-3,31.9l17.8,1.7l3.3-34.6l13,1.2
		L74.6,484.7z"/>
	<path class="st0" d="M20.2,412.3l-12.7-3.2l14.9-59.7l12.7,3.2l-5.6,22.3l60,15L85.8,405l-60-15L20.2,412.3z"/>
	<path class="st0" d="M32.8,322.3l7.4,2.7c2.1,0.8,4.1,2,6,3.6s3.6,3.4,5,5.5s2.5,4.1,3.3,6.2l-6.2,5.1c-1.4-1.8-3-3.6-4.9-5.2
		c-1.9-1.7-4.3-3.1-7.2-4.1l-7.5-2.7L32.8,322.3z"/>
	<path class="st0" d="M75.5,279.4c-2.8-1-5.4-0.9-7.8,0.4s-4.5,3.6-6.2,7.1c-1.1,2.3-1.8,4.4-1.9,6.4c-0.1,1.9,0.2,3.6,0.9,5
		s1.8,2.5,3.3,3.2c1.2,0.6,2.4,0.9,3.5,0.8c1.2-0.1,2.3-0.5,3.4-1.2s2.2-1.5,3.3-2.6c1.1-1.1,2.2-2.3,3.2-3.6l4.4-5.3
		c2.1-2.6,4.3-4.9,6.6-6.8c2.3-1.9,4.7-3.4,7.2-4.4s5-1.5,7.7-1.4s5.4,0.8,8.2,2.1c4.1,2,7.2,4.8,9.2,8.4c2,3.5,2.9,7.7,2.7,12.4
		c-0.2,4.7-1.7,9.8-4.4,15.3c-2.6,5.4-5.8,9.8-9.4,13s-7.6,5.1-12,5.8c-4.4,0.7-9-0.1-13.9-2.4l6.7-13.8c2.3,0.9,4.5,1.2,6.6,0.8
		c2.1-0.4,3.9-1.4,5.6-3s3.1-3.6,4.3-6c1.2-2.4,1.8-4.7,2-6.8c0.2-2.1-0.1-4-0.9-5.6s-2-2.8-3.6-3.6c-1.5-0.7-3-0.9-4.5-0.5
		s-3,1.3-4.5,2.6c-1.6,1.3-3.2,3.1-5,5.3l-5.4,6.4c-4.1,5-8.5,8.4-13,10.3s-9.3,1.6-14.3-0.9c-4.1-2-7.1-4.8-9.1-8.5
		c-2-3.7-2.9-7.9-2.7-12.6s1.4-9.5,3.8-14.4c2.4-5,5.4-9,8.9-11.9s7.3-4.7,11.4-5.3c4.1-0.6,8.1,0,12.2,1.9L75.5,279.4z"/>
	<path class="st0" d="M96.6,226.2l-10.3-8l37.8-48.6l10.3,8l-14.1,18.1l48.8,38l-9.6,12.4l-48.8-38L96.6,226.2z"/>
	<path class="st0" d="M191.5,207.7l-12.2,11.8L146,147.6l14.7-14.2l70.6,36.1L219,181.2l-53.6-28.6L165,153L191.5,207.7z
		 M170.3,187.2l28.9-27.8l8.6,8.9l-28.9,27.8L170.3,187.2z"/>
	<path class="st0" d="M236.8,166.2L193.6,105l12.9-9.1l35.6,50.6l26.3-18.5l7.5,10.7L236.8,166.2z"/>
	<path class="st0" d="M282.7,134.2L249,67.3l14.1-7.1L278,89.6l0.9-0.4l9.2-41.6l17-8.6l-9.7,42.5l43.8,24.3l-16.9,8.5L290,96
		l-2.7,12l9.6,19L282.7,134.2z"/>
	<path class="st0" d="M353.8,102.5c-2.3,0.8-4.5,0.7-6.7-0.3s-3.7-2.7-4.6-4.9c-0.8-2.2-0.7-4.5,0.3-6.7s2.7-3.7,4.9-4.5
		c2.2-0.8,4.4-0.7,6.7,0.3c2.2,1,3.8,2.6,4.6,4.9c0.6,1.5,0.7,3,0.4,4.6s-0.9,2.9-1.9,4.1C356.5,101.1,355.3,102,353.8,102.5z"/>
	<path class="st0" d="M391,89.2l-15.2-73.4l15.5-3.2l12.5,60.6l31.5-6.5l2.6,12.8L391,89.2z"/>
	<path class="st0" d="M446.2,78.4l-5-74.8l50.4-3.4l0.9,13l-34.6,2.3l1.2,17.8l32-2.1l0.9,13l-32,2.1l1.2,17.9l34.7-2.3l0.9,13
		L446.2,78.4z"/>
	<path class="st0" d="M508.8,13l1.1-13l61.3,5l-1.1,13l-22.9-1.8l-5,61.7l-15.6-1.3l5-61.7L508.8,13z"/>
	<path class="st0" d="M599.6,10.7l-1.5,7.8c-0.4,2.2-1.3,4.4-2.5,6.5c-1.3,2.1-2.8,4.1-4.6,5.8c-1.8,1.8-3.7,3.2-5.6,4.3l-6-5.3
		c1.6-1.7,3-3.6,4.4-5.7s2.3-4.7,2.9-7.8l1.5-7.8L599.6,10.7z"/>
	<path class="st0" d="M648.8,45.9c0.6-2.9,0-5.5-1.7-7.7s-4.3-3.8-8-4.9c-2.5-0.7-4.7-1-6.6-0.8c-1.9,0.2-3.5,0.8-4.8,1.7
		s-2.1,2.2-2.6,3.7c-0.4,1.3-0.5,2.5-0.2,3.6s0.9,2.2,1.7,3.2s1.9,2,3.1,2.9c1.2,0.9,2.6,1.8,4,2.6l6,3.5c2.9,1.6,5.5,3.4,7.8,5.4
		c2.3,1.9,4.1,4.1,5.5,6.3c1.4,2.3,2.3,4.7,2.7,7.4c0.4,2.6,0.1,5.4-0.7,8.4c-1.3,4.4-3.6,7.9-6.7,10.4c-3.2,2.6-7.1,4.1-11.8,4.6
		s-9.9-0.1-15.8-1.8c-5.8-1.7-10.6-4.1-14.3-7.2c-3.8-3.1-6.3-6.7-7.7-10.9s-1.3-8.9,0.1-14.1l14.7,4.4c-0.6,2.5-0.5,4.7,0.3,6.6
		c0.8,2,2,3.7,3.9,5.1c1.8,1.4,4.1,2.5,6.7,3.3c2.6,0.8,4.9,1.1,7.1,0.9c2.1-0.2,3.9-0.8,5.4-1.8c1.4-1,2.4-2.4,2.9-4.1
		c0.5-1.6,0.4-3.1-0.2-4.5c-0.6-1.4-1.7-2.7-3.3-4s-3.6-2.7-6-4.1l-7.2-4.3c-5.6-3.3-9.7-7-12.3-11.2s-3.1-8.9-1.5-14.2
		c1.3-4.4,3.6-7.8,6.9-10.4c3.3-2.6,7.3-4.1,12-4.7c4.7-0.6,9.6-0.1,14.8,1.4c5.3,1.6,9.7,3.9,13.2,6.9c3.4,3,5.8,6.5,7.1,10.4
		s1.3,8,0.1,12.3L648.8,45.9z"/>
</g>
</svg>
