<?xml version="1.0" encoding="utf-8"?>
<!-- Generator: Adobe Illustrator 25.2.1, SVG Export Plug-In . SVG Version: 6.00 Build 0)  -->
<svg version="1.1" id="Слой_1" xmlns="http://www.w3.org/2000/svg" xmlns:xlink="http://www.w3.org/1999/xlink" x="0px" y="0px"
	 viewBox="0 0 1000 1000" style="enable-background:new 0 0 1000 1000;" xml:space="preserve">
<style type="text/css">
	.st0{fill:#181D30;}
</style>
<g>
	<path d="M-1758.4-24.5c40,0,80,0,119.9,0c2.6,0.6,5.1,1.5,7.7,1.8c20.8,2,41.7,3.5,62.5,5.9c63.3,7.5,125.2,21.7,185.9,41.3
		c39,12.6,77,27.8,114.3,44.9c43.4,19.9,84.8,43.2,124.9,69c33.4,21.4,65.7,44.4,95.8,70.1c20.7,17.7,41.2,35.7,61,54.5
		c25.9,24.5,50,50.6,72.7,78.1c23.4,28.2,45.9,57.1,66.1,87.6c30.9,46.7,58.6,95.2,81.7,146.3c23.4,51.7,42.7,104.8,57.1,159.7
		c18.1,68.7,31,138.3,32,209.7c0,2.9,1.1,5.8,1.7,8.7c0,31.3,0,62.6,0,94c-0.6,3.6-1.8,7.1-1.8,10.7c0.7,32.8-4.1,65.1-9,97.3
		c-10.1,66.3-26.5,131.2-49.6,194.3c-25.5,69.7-57.9,136-97.8,198.6c-43.4,68.2-93.9,130.7-152.3,186.8
		c-23.6,22.6-47.7,44.5-73.1,64.9c-54.2,43.5-112.3,81.1-174.1,112.9c-49.3,25.3-100.4,46.1-153.2,63
		c-45.1,14.5-90.9,25.9-137.7,33.9c-15.9,2.7-17.1,1.6-17.1-14.7c0-227.9,0-455.7,0-683.6c0-16.2,0-16.3,16-16.3
		c68.3,0,136.6,0,204.9,0c3,0,6,0.1,9,0c8.2-0.3,8.9-0.8,10.2-9.1c5.2-32.9,10.4-65.8,15.5-98.7c8.6-55.6,17-111.2,25.5-166.9
		c0.8-5.5,1.2-11.1,1.9-17.9c-5.4-0.4-9.8-1.1-14.3-1.1c-84-0.1-167.9,0-251.9-0.1c-16.2,0-16.7-0.5-16.7-16.9
		c0-59.3-0.2-118.6,0.1-177.9c0.1-22.8,3.4-45.1,11.4-66.6c8.7-23.2,21.4-43.6,41.2-59c29-22.6,62.6-32.4,98.7-33.3
		c43-1,85.9-0.3,128.9-0.3c15.5,0,15.5-0.1,15.5-15.6c0-73,0-145.9,0-218.9c0-3,0-6-0.2-9c-0.2-4.6-2.5-7.3-7.2-8
		c-8.2-1.2-16.4-2.7-24.7-3.8c-49.1-6.7-98.5-11.7-148-13.9c-34.6-1.5-69.3-2-103.8,2c-42.2,4.8-83.2,14.5-122.5,31.3
		c-45.5,19.5-84.5,48-116.8,85.2c-38.1,43.9-61.7,95.3-75.6,151.5c-10.8,43.9-14,88.8-14.6,133.7c-0.8,67.6-0.2,135.3-0.2,202.9
		c0,16.7,0,16.7-16.6,16.7c-76,0-151.9,0-227.9,0c-15.4,0-15.4,0.1-15.4,15.7c0,87.3,0,174.6,0,261.9c0,16.1,0,16.1,16,16.1
		c75,0,149.9,0,224.9,0c3,0,6-0.1,9,0.1c8.3,0.4,9.6,1.7,10,10.2c0.1,1.7,0,3.3,0,5c0,228.5,0,457.1,0,685.6c0,2.7-0.1,5.3-0.2,8
		c-0.3,5-3.3,7-8,6.7c-2-0.1-4-0.5-5.9-0.8c-49.7-8.3-98.5-20.4-146.3-36.2c-35.8-11.8-70.7-25.6-105-41.2
		c-36.1-16.4-71.2-34.9-105.1-55.4c-32.7-19.9-64.3-41.5-94.7-64.9c-33.5-25.9-65.4-53.5-95.6-83.2c-12.3-12.1-24.1-24.9-35.7-37.6
		c-11.7-12.8-23.3-25.6-34.3-39c-26.8-32.4-51.9-66-73.9-101.8c-14.1-23-28.3-46-41-69.7c-31.4-58.9-57-120.3-76.1-184.4
		c-20.8-70.2-35-141.5-40.2-214.6c-0.4-6.2-2.4-12.3-3.7-18.5c0-42,0-84,0-125.9c1.3-6.8,2.9-13.6,3.7-20.5
		c3.2-26.4,5.4-53,9.4-79.2c9.3-61.7,25.1-121.9,46-180.7c13.2-37.1,28.2-73.3,45.6-108.6c23.4-47.5,50.2-93.1,80.9-136.4
		c29.3-41.3,60.5-81.1,96.1-117.2c15.2-15.4,30.4-30.7,45.9-45.8c8.3-8.1,16.8-16.2,25.9-23.4c23.6-19,47.3-37.8,71.4-56.1
		c36.7-27.8,76-51.7,116.5-73.4C-2119.2,61.9-2053,34.8-1984,15c70.9-20.4,143.1-33.6,216.9-37.7
		C-1764.1-22.9-1761.3-23.9-1758.4-24.5z"/>
	<path d="M-1748.4,2024.5c7.2-5.5,14.8-5.5,22,0C-1733.7,2024.5-1741,2024.5-1748.4,2024.5z"/>
	<path d="M-1670.4,2024.5c7.2-5.5,14.8-5.5,22,0C-1655.8,2024.5-1663.1,2024.5-1670.4,2024.5z"/>
	<path d="M-1762.2,2021c1.8,0,3.6,0,5.5,0c0,0.3,0,0.5,0,0.8c-1.8,0-3.7,0-5.5,0C-1762.2,2021.5-1762.2,2021.3-1762.2,2021z"/>
	<path d="M-1640.3,2020.9c1.8-0.1,3.6-0.2,5.4-0.3c0,0.4,0.1,0.8,0.1,1.2c-1.8,0.1-3.6,0.3-5.4,0.4
		C-1640.2,2021.8-1640.3,2021.3-1640.3,2020.9z"/>
	<path d="M-1558.4,2013.9c-1.4,0-2.7,0-4.1,0c0-0.2,0-0.5,0-0.7c1.4,0,2.7,0,4.1,0C-1558.4,2013.4-1558.4,2013.6-1558.4,2013.9z"/>
</g>
<g>
	<path d="M1707.5,1278.6c0,54.7-45.3,100.4-99.7,100.4c-57.8,0-102.6-44.4-102.6-101.6c0-55.2,45.4-100.4,101.1-100.4
		C1662.6,1176.9,1707.5,1222,1707.5,1278.6z"/>
	<path d="M1855,1278.3c0-30.8,0.6-61.6-0.2-92.4c-0.5-21-1.4-42.1-4.8-62.7c-6.8-40.2-28.6-69.8-68.4-83c-15.3-5.1-31.9-8.4-48-8.8
		c-68.2-1.5-136.4-2-204.7-2c-23.1,0-46.3,1.2-69.2,3.7c-53.2,5.7-88.7,38.4-97.1,91.2c-4.2,26.6-4.8,53.9-5.2,80.9
		c-0.8,48.3-0.6,96.7-0.1,145c0.3,24.7,1.3,49.5,3.8,74.1c5.2,52.6,39.1,89.4,91.1,97.2c26.2,3.9,53,4.7,79.6,5.1
		c49.5,0.8,99.1,0.6,148.6,0.1c24-0.3,48.1-1.4,72.1-3.8c23.4-2.3,44.9-10.3,63.1-26.1c25.3-22.1,35.4-51.3,37.1-83.4
		c2.3-45,2.7-90,4-135C1856.2,1278.3,1855.6,1278.3,1855,1278.3z M1605.4,1434.3c-86.1-0.1-155.9-70.8-155.4-157.4
		c0.4-85.9,71.1-155.7,157-155.1c86.4,0.6,156.1,70.5,155.8,156.3C1762.5,1365.1,1692.6,1434.4,1605.4,1434.3z"/>
	<path d="M1606.5,777.8c-276.4,0-500.4,224-500.4,500.4c0,276.3,224,500.4,500.4,500.4c276.3,0,500.4-224,500.4-500.4
		C2106.9,1001.9,1882.8,777.8,1606.5,777.8z M1907.8,1416.5c-2.6,46.2-18.1,87.4-53.3,119.6c-27.3,24.9-60,37.9-96.1,41.5
		c-28.5,2.9-57.3,3.9-86.1,4.2c-53.5,0.5-107.1,0.6-160.6-0.6c-26-0.6-52.6-1.8-77.9-7.3c-72.8-16-118.8-68.1-127.3-142.6
		c-3.4-29.6-4.1-59.6-4.4-89.4c-0.5-53-0.2-106,0.5-159c0.4-29.4,1.1-58.9,9.6-87.4c19.7-65.6,64.2-104.3,131-115.1
		c32.3-5.2,65.6-5.6,98.5-6.1c53-0.8,106.1-0.3,159.2,0.4c30.8,0.4,61.8,1.1,91.6,10.6c63.9,20.4,101.4,64.6,111.9,129.8
		c5.3,33,4.9,66.9,6.2,100.5c0.9,22.8,0.2,45.8,0.2,68.6c0.3,0,0.7,0,1.1,0C1910.5,1328.4,1910.3,1372.5,1907.8,1416.5z"/>
</g>
<g>
	<path d="M367.3,1702.2c-276.1,0-500,223.9-500,500s223.9,500,500,500s500-223.9,500-500S643.4,1702.2,367.3,1702.2z M598.5,2381
		c0.2,15.6-0.1,31.2,0.1,46.9c0,3.8-1.2,4.9-4.9,4.9c-29.5-0.1-58.9-0.2-88.4,0c-4.2,0-5.3-1.2-5.3-5.3c0.1-49.8,0.1-99.5,0.1-149.2
		c0-14.9-0.1-29.9-3.9-44.5c-4.5-17.3-13.8-30.4-32.3-34c-18.3-3.5-36.2-2.1-51.3,10.5c-8.8,7.3-14,17.1-16,28
		c-2.3,12.5-4.1,25.2-4.2,37.8c-0.5,50.1-0.2,100.3-0.2,150.5c0,6.1,0,6.1-6,6.1c-28.6,0-57.3,0-85.9,0c-5.7,0-5.7,0-5.7-5.5v-301.8
		c0-5.7,0-5.7,5.7-5.7c27.4,0,54.8,0,82.2,0c5.7,0,5.8,0,5.8,5.6c0,10.8,0,21.7,0,32.5v4c0.3,0,0.6,0.1,0.9,0.1
		c2.9-4.1,5.6-8.4,8.8-12.2c17.3-20.9,39.9-32.8,66.5-36.2c25.2-3.3,50-1,73.7,8.9c21.5,9,36.4,24.9,45.8,46
		c8,18.2,11.8,37.6,13.1,57.4C600.3,2277.5,597.8,2329.3,598.5,2381z M185.9,1964.5c31.3,0.3,56.8,24.7,57,57.1
		c0.1,31.5-26.1,56.9-57.2,56.8c-31.5-0.1-56.6-25.6-56.5-57.3C129.3,1989.7,154.7,1964.2,185.9,1964.5z M136.7,2427.7
		c0.1-100.9,0.1-201.9,0-302.9c0-3.8,0.9-5.2,5-5.2c29.2,0.2,58.3,0.2,87.5,0c4.2,0,5.3,1.2,5.3,5.4c-0.1,50.5-0.1,101.1-0.1,151.6
		v150.4c0,5.6,0,5.7-5.6,5.7c-29,0-58.1-0.1-87.1,0.1C137.7,2432.8,136.7,2431.7,136.7,2427.7z"/>
</g>
<path d="M2623.5-45.9c-276.1,0-500,223.9-500,500s223.9,500,500,500s500-223.9,500-500S2899.6-45.9,2623.5-45.9z M2948.7,485.1
	c-3.1,54.5-16.6,106.2-44.2,153.7c-20.7,35.5-47.4,65.5-80.7,89.5c-34.8,25-73.6,41.3-115.5,50.4c-25.7,5.6-51.7,8.3-77.8,8.2
	c-52.4-0.2-102.5-11.5-149.4-35.3c-46.4-23.5-85.3-56.1-116.6-97.6c-21.4-28.4-38.4-59.2-49.2-93.2c-4.6-14.4-8.1-29.1-11.6-43.8
	c-6.7-27.9-6.8-56.4-5.6-84.9c0.6-13.4,2.9-26.8,5.5-39.9c2.7-13.8,6-27.6,10.2-41c7.4-23.8,18-46.2,30.7-67.6
	c17.8-29.9,39.8-56.2,65.8-79.2c18.5-16.3,38.6-30.6,60.4-42.4c33.6-18.1,69.1-30.5,106.8-36.4c26.6-4.2,53.2-5.3,80.1-3
	c27.7,2.3,54.7,7.5,81,16.5c29.3,10,56.7,24,81.6,42.6c8.7,6.5,17.1,13.3,25.5,20c7.8,6.2,7.8,7.2,0.8,14.1
	c-22.1,22-44.1,44-66.2,66c-6,6-12,12-17.9,18.2c-2.6,2.7-4.5,2.8-7.4,0c-23-21.2-49.9-35.3-80.4-42.4c-25.4-5.9-51.3-6.3-76.9-2
	c-30.5,5.1-58.3,17.3-83.1,35.9c-30.4,22.8-52.9,51.9-67.3,87c-7.2,17.6-11.3,36-13.8,54.9c-2.1,16.1-0.9,31.9,0.7,47.8
	c1,9.7,3.6,19.2,6.2,28.6c6.5,23.7,17.2,45.4,32,65c31.5,41.9,72.7,68.7,124.4,77.8c44.2,7.8,87.1,2.2,127.5-17.8
	c44.9-22.2,73.5-57.8,84.8-106.9c1.2-5.1,0.5-5.8-5.4-5.8c-55.2,0-110.3,0-165.5,0c-8.5,0-8.5,0-8.5-8.5c0-38.7,0.1-77.3-0.1-116
	c0-4.4,0.9-6.8,6-6.8c45.8,0.2,91.7,0.2,137.5,0.3c4.5,0,9,0,13.5,0c49.3,0,98.7,0,148,0c8.2,0,8.1,0,9.6,7.9
	C2949.5,427.5,2950.3,456.4,2948.7,485.1z"/>
<path class="st0" d="M500,0C223.9,0,0,223.9,0,500s223.9,500,500,500s500-223.9,500-500S776.1,0,500,0z M809.1,365
	c0.4,6.4,0.4,12.9,0.4,19.4c0,198.6-151.2,427.6-427.6,427.6v-0.2c-81.7,0.2-161.7-23.1-230.4-67.3c11.9,1.4,23.8,2.1,35.7,2.2
	C255,746.7,320.7,724,374,682.2c-64.3-1.2-120.7-43.1-140.4-104.4c22.6,4.3,45.7,3.4,67.8-2.6c-70-14.1-120.5-75.7-120.5-147.3V426
	c20.9,11.6,44.3,18.1,68.2,18.8c-66-44.2-86.4-132-46.5-200.7c76.3,93.9,188.9,151,309.7,157c-12.1-52.2,4.5-106.9,43.5-143.6
	c60.5-56.9,155.7-54,212.6,6.5c33.6-6.7,65.9-19,95.4-36.5c-11.2,34.8-34.7,64.4-66.1,83.1c29.8-3.5,58.9-11.5,86.3-23.7
	C864,317.3,838.5,343.7,809.1,365z"/>
</svg>
